<svg width="124" height="19" viewBox="0 0 124 19" fill="none" xmlns="http://www.w3.org/2000/svg">
<path d="M111.379 17.8331C112.37 18.2673 113.446 18.4772 114.528 18.448C115.782 18.4876 117.02 18.1548 118.085 17.4917C118.697 17.0671 119.199 16.5019 119.548 15.8435C119.897 15.1852 120.083 14.4527 120.091 13.7076C120.091 11.8843 119.428 10.4696 116.654 8.353L115.991 7.85575C113.732 6.14852 113.117 5.32888 113.117 4.02608C113.116 3.65635 113.192 3.29038 113.34 2.95187C113.489 2.61335 113.707 2.30983 113.981 2.06094C114.254 1.81205 114.577 1.62334 114.928 1.50702C115.279 1.3907 115.65 1.34936 116.018 1.38568C118.186 1.38568 118.818 2.34205 118.96 2.59234C119.12 2.95355 119.224 3.33736 119.268 3.73022C119.29 3.91254 119.313 4.02608 119.456 4.02608C119.575 4.02608 119.621 3.86696 119.621 3.50231C119.621 1.9542 119.718 1.20335 119.718 1.08981C119.718 0.976271 119.673 0.930689 119.485 0.930689C119.205 0.921872 118.927 0.883817 118.656 0.817149C117.937 0.65559 117.202 0.579095 116.465 0.58924C113.471 0.58924 111.587 2.24675 111.587 4.6924C111.587 6.24051 112.151 7.65685 114.649 9.63757L115.708 10.4754C117.734 12.0915 118.416 13.0081 118.416 14.5786C118.409 15.0036 118.313 15.4225 118.137 15.8092C117.96 16.1959 117.706 16.5422 117.391 16.8267C117.075 17.1111 116.704 17.3275 116.301 17.4626C115.898 17.5977 115.471 17.6485 115.048 17.6118C113.473 17.6118 111.917 16.9745 111.567 15.2913C111.515 15.0138 111.492 14.7316 111.499 14.4493C111.499 14.267 111.476 14.2007 111.333 14.2007C111.214 14.2007 111.167 14.3142 111.145 14.5645C111.123 14.9283 111.026 15.8391 111.026 16.977C111.026 17.5861 111.054 17.6773 111.379 17.8364V17.8331ZM10.6785 10.3047C10.7978 10.3047 10.7978 10.2368 10.7696 10.1456L8.53201 3.99376C8.41267 3.65231 8.29831 3.65231 8.17897 3.99376L6.10708 10.1456C6.0615 10.2591 6.10708 10.3047 6.17504 10.3047H10.6785ZM8.2262 1.18843C8.51047 0.437578 8.60163 0.300835 8.74417 0.300835C8.88672 0.300835 8.97788 0.414373 9.26215 1.12047C9.61519 1.98569 13.3139 11.397 14.7477 14.8629C15.5955 16.8883 16.2784 17.253 16.7731 17.3897C17.0792 17.4832 17.3979 17.5293 17.7179 17.5265C17.8605 17.5265 17.9516 17.5489 17.9516 17.6632C17.9516 17.8 17.7411 17.8455 17.4792 17.8455C17.1262 17.8455 15.4073 17.8455 13.7805 17.8C13.3313 17.7776 13.0752 17.7776 13.0752 17.6408C13.0752 17.5497 13.1432 17.5041 13.241 17.4817C13.3835 17.4361 13.5253 17.2331 13.3835 16.8668L11.1923 11.2619C11.1771 11.2192 11.1483 11.1826 11.1102 11.1579C11.0722 11.1331 11.027 11.1217 10.9818 11.1252H5.91564C5.86194 11.1252 5.8098 11.1432 5.76747 11.1762C5.72513 11.2092 5.69503 11.2554 5.68193 11.3075L4.27305 15.3419C4.07843 15.8282 3.96639 16.3436 3.94155 16.8668C3.94155 17.3218 4.4388 17.5298 4.83495 17.5298H5.06948C5.23523 17.5298 5.30319 17.5754 5.30319 17.6665C5.30319 17.8033 5.16065 17.8489 4.95014 17.8489C4.38659 17.8489 3.37551 17.7809 3.11197 17.7809C2.84842 17.7809 1.55806 17.8489 0.449184 17.8489C0.141717 17.8489 0 17.8033 0 17.6665C0 17.5754 0.0969623 17.5298 0.210502 17.5298C0.376252 17.5298 0.707754 17.5074 0.893395 17.4842C1.97077 17.3475 2.44731 16.4831 2.87411 15.3444L8.2262 1.18843ZM26.9767 9.21242C26.9748 9.26917 26.9895 9.32525 27.0189 9.37382C27.0484 9.42238 27.0913 9.46133 27.1425 9.48591C27.9376 9.76125 28.7773 9.88467 29.618 9.84973C30.236 9.88332 30.85 9.73276 31.3824 9.41712C32.2112 8.87097 32.8161 7.64193 32.8161 5.90569C32.8161 3.05478 31.2622 1.34755 28.742 1.34755C28.2137 1.33617 27.6858 1.38202 27.1674 1.4843C27.1102 1.5027 27.0607 1.53951 27.0267 1.58899C26.9927 1.63847 26.976 1.69782 26.9792 1.75779V9.21657L26.9767 9.21242ZM25.0872 7.22341C25.0872 3.66641 25.0872 3.02909 25.0416 2.30145C24.996 1.52739 24.8079 1.16357 24.0289 1.00362C23.764 0.957203 23.4955 0.93446 23.2266 0.935659C23.1297 0.935659 23.0385 0.890083 23.0385 0.79892C23.0385 0.662176 23.1579 0.616593 23.4139 0.616593C24.4723 0.616593 25.9574 0.684552 26.0767 0.684552C26.3386 0.684552 28.1254 0.616593 28.8539 0.616593C30.3593 0.506396 31.8626 0.856716 33.1642 1.62104C33.6542 1.97904 34.0553 2.44492 34.3365 2.98265C34.6177 3.52038 34.7716 4.11557 34.7861 4.72223C34.7861 6.40626 34.0576 8.09692 31.9352 9.98565C33.8645 12.3758 35.469 14.407 36.8348 15.8184C37.5748 16.6803 38.5903 17.2595 39.7089 17.4577C40.0113 17.5044 40.317 17.5274 40.623 17.5265C40.7423 17.5265 40.8335 17.5944 40.8335 17.6632C40.8335 17.8 40.691 17.8455 40.2699 17.8455H38.5967C37.7329 17.9252 36.8634 17.776 36.0756 17.4129C35.0629 16.8892 34.2375 15.7737 32.8949 14.0615C31.9045 12.8092 30.8006 11.2785 30.3257 10.6868C30.288 10.6424 30.2407 10.6071 30.1875 10.5835C30.1343 10.5598 30.0765 10.5484 30.0183 10.55L27.1176 10.5044C26.9983 10.5044 26.9519 10.5724 26.9519 10.6868V11.2329C26.9519 13.4183 26.9519 15.2217 27.0712 16.1781C27.1392 16.8411 27.2817 17.3383 27.987 17.4303C28.3185 17.4759 28.8348 17.5215 29.0453 17.5215C29.1879 17.5215 29.2334 17.5895 29.2334 17.6582C29.2334 17.7718 29.1141 17.8406 28.858 17.8406C27.5602 17.8406 26.0809 17.7726 25.9615 17.7726C25.9391 17.7726 24.4532 17.8406 23.7479 17.8406C23.486 17.8406 23.3725 17.795 23.3725 17.6582C23.3725 17.5903 23.4181 17.5215 23.5606 17.5215C23.7981 17.5136 24.0342 17.483 24.2659 17.4303C24.7383 17.3392 24.8576 16.8386 24.9488 16.1781C25.0681 15.2217 25.0681 13.4241 25.0681 11.2329V7.2259L25.0872 7.22341ZM60.8413 7.22341C60.8413 3.66641 60.8413 3.02909 60.8868 2.30145C60.9324 1.50501 61.1205 1.11799 61.7579 1.00362C61.9529 0.964663 62.1508 0.941932 62.3496 0.935659C62.4466 0.935659 62.5377 0.890083 62.5377 0.79892C62.5377 0.662176 62.4184 0.616593 62.1623 0.616593C61.457 0.616593 59.9711 0.684552 59.8517 0.684552C59.7324 0.684552 58.2531 0.616593 57.1889 0.616593C56.9271 0.616593 56.8135 0.662176 56.8135 0.79892C56.8135 0.890083 56.9105 0.935659 57.0016 0.935659C57.2705 0.934708 57.539 0.957449 57.8039 1.00362C58.5779 1.16274 58.771 1.52739 58.8166 2.30145C58.8622 3.02992 58.8622 3.66723 58.8622 7.22341V7.7016C58.8622 7.81514 58.7942 7.83835 58.7197 7.83835H48.7315C48.6636 7.83835 48.589 7.81597 48.589 7.7016V7.22341C48.589 3.66641 48.589 3.02909 48.6346 2.30145C48.6801 1.50501 48.8683 1.11799 49.5056 1.00362C49.6988 0.965325 49.8947 0.942599 50.0915 0.935659C50.1885 0.935659 50.2796 0.890083 50.2796 0.79892C50.2796 0.662176 50.1603 0.616593 49.9042 0.616593C49.1989 0.616593 47.713 0.684552 47.5936 0.684552C47.4743 0.684552 45.9892 0.616593 44.93 0.616593C44.6739 0.616593 44.5546 0.662176 44.5546 0.79892C44.5546 0.890083 44.6516 0.935659 44.7427 0.935659C45.0116 0.934708 45.2801 0.957449 45.545 1.00362C46.3248 1.16274 46.5121 1.52739 46.5577 2.30145C46.6033 3.02992 46.6033 3.66723 46.6033 7.22341V11.2379C46.6033 13.4233 46.6033 15.2267 46.4839 16.1831C46.387 16.8461 46.2734 17.3433 45.801 17.4353C45.5694 17.488 45.3332 17.5185 45.0958 17.5265C44.9532 17.5265 44.9076 17.5944 44.9076 17.6632C44.9076 17.8 45.027 17.8455 45.2831 17.8455C45.9883 17.8455 47.4743 17.7776 47.5936 17.7776C47.713 17.7776 49.1923 17.8455 50.4901 17.8455C50.7462 17.8455 50.8656 17.7776 50.8656 17.6632C50.8656 17.5953 50.82 17.5265 50.6774 17.5265C50.4669 17.5265 49.949 17.4809 49.6191 17.4353C48.9138 17.3441 48.7713 16.8436 48.7033 16.1831C48.584 15.2267 48.584 13.4233 48.584 11.2379V8.84777C48.584 8.73423 48.652 8.71103 48.7265 8.71103H58.7139C58.7323 8.71012 58.7508 8.71299 58.7681 8.71947C58.7854 8.72595 58.8012 8.7359 58.8146 8.7487C58.8279 8.7615 58.8385 8.77688 58.8457 8.79392C58.8529 8.81095 58.8565 8.82928 58.8564 8.84777V11.2379C58.8564 13.4233 58.8564 15.2267 58.7371 16.1831C58.6401 16.8461 58.5266 17.3433 58.0542 17.4353C57.8225 17.488 57.5863 17.5185 57.3489 17.5265C57.2063 17.5265 57.1608 17.5944 57.1608 17.6632C57.1608 17.8 57.2801 17.8455 57.5362 17.8455C58.2415 17.8455 59.7274 17.7776 59.8468 17.7776C59.9661 17.7776 61.4454 17.8455 62.7474 17.8455C63.0093 17.8455 63.1228 17.7776 63.1228 17.6632C63.1228 17.5953 63.0772 17.5265 62.9347 17.5265C62.7242 17.5265 62.2062 17.4809 61.8764 17.4353C61.1711 17.3441 61.0286 16.8436 60.9606 16.1831C60.8413 15.2267 60.8413 13.4233 60.8413 11.2379V7.2259V7.22341ZM78.1009 10.3022C78.2202 10.3022 78.2202 10.2343 78.1978 10.1431L75.9602 3.99128C75.8409 3.64983 75.7265 3.64983 75.6072 3.99128L73.5353 10.1431C73.4897 10.2566 73.5353 10.3022 73.6032 10.3022H78.1009ZM75.6536 1.18594C75.9378 0.435093 76.029 0.29835 76.1715 0.29835C76.3141 0.29835 76.4052 0.411888 76.6895 1.11799C77.0426 1.9832 80.7413 11.3945 82.175 14.8604C83.0228 16.8858 83.7057 17.2505 84.2005 17.3872C84.5066 17.4807 84.8252 17.5269 85.1453 17.524C85.2878 17.524 85.379 17.5464 85.379 17.6607C85.379 17.7975 85.1685 17.8431 84.9066 17.8431C84.5536 17.8431 82.8347 17.8431 81.2079 17.7975C80.7587 17.7751 80.5026 17.7751 80.5026 17.6384C80.5026 17.5472 80.5706 17.5016 80.6684 17.4792C80.8109 17.4337 80.9526 17.2306 80.8109 16.8643L78.6197 11.2594C78.6053 11.2162 78.5766 11.1791 78.5383 11.1543C78.5001 11.1294 78.4546 11.1183 78.4092 11.1227H73.3447C73.291 11.1227 73.2388 11.1407 73.1965 11.1737C73.1542 11.2067 73.124 11.2529 73.1109 11.305L71.7021 15.3394C71.5075 15.8257 71.3954 16.3411 71.3706 16.8643C71.3706 17.3193 71.8678 17.5273 72.264 17.5273H72.4977C72.6634 17.5273 72.7314 17.5729 72.7314 17.664C72.7314 17.8008 72.5888 17.8464 72.3783 17.8464C71.8148 17.8464 70.8037 17.7784 70.5402 17.7784C70.2766 17.7784 68.9862 17.8464 67.8774 17.8464C67.5699 17.8464 67.4282 17.8008 67.4282 17.664C67.4282 17.5729 67.5252 17.5273 67.6387 17.5273C67.8044 17.5273 68.1359 17.5049 68.3216 17.4817C69.399 17.345 69.8755 16.4806 70.3023 15.3419L75.6536 1.18594ZM90.204 10.5509C90.204 13.88 91.0974 15.4728 92.2527 16.5427C93.6274 17.6409 95.3481 18.2138 97.1067 18.1588C98.877 18.2271 100.608 17.6258 101.955 16.4748C103.839 14.8587 104.123 12.1213 104.123 9.66326V7.2259C104.123 3.66972 104.123 3.03158 104.168 2.30393C104.214 1.5075 104.402 1.14368 105.04 1.00611C105.233 0.967529 105.429 0.9448 105.625 0.93815C105.722 0.93815 105.814 0.892568 105.814 0.801405C105.814 0.664661 105.694 0.619078 105.438 0.619078C104.733 0.619078 103.623 0.687037 103.457 0.687037C103.315 0.687037 102.018 0.619078 100.96 0.619078C100.703 0.619078 100.584 0.664661 100.584 0.801405C100.584 0.892568 100.675 0.93815 100.772 0.93815C101.041 0.937203 101.31 0.959944 101.574 1.00611C102.354 1.16523 102.542 1.52988 102.587 2.30393C102.633 3.03241 102.633 3.66972 102.633 7.2259V10.0768C102.633 12.4214 102.349 14.3615 101.267 15.6593C100.798 16.1743 100.227 16.586 99.5902 16.8682C98.9534 17.1504 98.2648 17.297 97.5683 17.2986C96.9211 17.3464 96.271 17.2598 95.6589 17.0443C95.0467 16.8288 94.4858 16.489 94.0113 16.0463C92.9985 15.1131 92.2469 13.7018 92.2469 10.4183V7.2259C92.2469 3.66972 92.2469 3.03158 92.2924 2.30393C92.338 1.5075 92.5262 1.09727 93.1635 1.00611C93.3585 0.967453 93.5564 0.944724 93.7552 0.93815C93.8464 0.93815 93.9433 0.892568 93.9433 0.801405C93.9433 0.664661 93.824 0.619078 93.5679 0.619078C92.8626 0.619078 91.4455 0.687037 91.235 0.687037C91.0245 0.687037 89.5849 0.619078 88.5266 0.619078C88.2647 0.619078 88.1512 0.664661 88.1512 0.801405C88.1512 0.892568 88.2481 0.93815 88.3393 0.93815C88.6082 0.937208 88.8766 0.959949 89.1415 1.00611C89.9214 1.16523 90.1087 1.52988 90.1543 2.30393C90.1999 3.03241 90.1998 3.66972 90.1998 7.2259V10.5583L90.204 10.5509ZM122.623 1.25142C122.684 1.27726 122.75 1.28888 122.816 1.2854C122.86 1.28558 122.904 1.27384 122.941 1.25142C122.98 1.22952 123.011 1.19682 123.031 1.15735C123.052 1.11788 123.06 1.07338 123.055 1.02931C123.056 0.988342 123.049 0.947573 123.033 0.90983C123.017 0.872086 122.993 0.838261 122.962 0.810687C122.932 0.783113 122.896 0.762448 122.857 0.750114C122.818 0.73778 122.777 0.73407 122.736 0.739245C122.724 0.739245 122.645 0.739245 122.622 0.761621L122.623 1.25142ZM122.395 1.10307C122.395 0.920744 122.384 0.835381 122.384 0.771567C122.384 0.707753 122.344 0.688693 122.241 0.688693C122.229 0.688693 122.201 0.67709 122.201 0.666316C122.201 0.655543 122.224 0.626539 122.264 0.626539H122.327C122.35 0.626539 122.452 0.638142 122.493 0.638142C122.607 0.638142 122.659 0.626539 122.761 0.626539C122.977 0.626539 123.295 0.666314 123.295 0.958035C123.295 1.07738 123.255 1.17434 123.067 1.32186L123.284 1.57794C123.449 1.77104 123.5 1.78265 123.532 1.78265C123.565 1.78265 123.572 1.79425 123.572 1.80502C123.572 1.8158 123.56 1.839 123.481 1.839C123.315 1.839 123.225 1.8506 123.037 1.61109L122.86 1.37739H122.632V1.48512C122.632 1.73375 122.644 1.74121 122.655 1.75281C122.695 1.76675 122.737 1.7743 122.78 1.77519C122.802 1.77519 122.82 1.77519 122.82 1.79756C122.82 1.81994 122.797 1.83154 122.768 1.83154H122.717C122.694 1.83154 122.574 1.81994 122.512 1.81994C122.472 1.81994 122.346 1.83154 122.324 1.83154H122.255C122.233 1.83154 122.204 1.83154 122.204 1.80917C122.204 1.78679 122.226 1.77519 122.255 1.77519C122.369 1.77519 122.369 1.77519 122.38 1.70143C122.392 1.62767 122.392 1.55308 122.392 1.35998V1.1039L122.395 1.10307ZM123.778 1.27379C123.758 1.03475 123.649 0.811932 123.473 0.649523C123.296 0.487114 123.065 0.396974 122.825 0.396974C122.586 0.396974 122.354 0.487114 122.178 0.649523C122.001 0.811932 121.892 1.03475 121.872 1.27379C121.89 1.51467 121.998 1.74002 122.175 1.90451C122.351 2.06901 122.584 2.16046 122.825 2.16046C123.067 2.16046 123.299 2.06901 123.476 1.90451C123.653 1.74002 123.761 1.51467 123.778 1.27379ZM121.662 1.2854C121.639 1.04992 121.688 0.81301 121.802 0.605844C121.916 0.398679 122.091 0.230955 122.302 0.124736C122.513 0.0185165 122.752 -0.0212195 122.986 0.010747C123.221 0.0427135 123.44 0.144887 123.615 0.303832C123.791 0.462777 123.914 0.671045 123.968 0.901243C124.023 1.13144 124.007 1.37279 123.922 1.59354C123.836 1.81428 123.686 2.00408 123.491 2.13798C123.296 2.27188 123.065 2.34361 122.829 2.34371C122.682 2.35466 122.534 2.33559 122.395 2.28768C122.255 2.23977 122.127 2.16401 122.018 2.06501C121.909 1.96602 121.821 1.84585 121.76 1.71182C121.699 1.5778 121.665 1.43272 121.662 1.2854Z" fill="black"/>
</svg>
